<svg xmlns="http://www.w3.org/2000/svg" viewBox="0 0 48 48" width="48" height="48">
  <rect width="48" height="48" rx="10" fill="#14503f"/>
  <g fill="none" stroke="#ffffff" stroke-width="2.4" stroke-linecap="round" stroke-linejoin="round">
    <path d="M24 9c4.2 2.9 6.8 6.7 6.8 11.1 0 1.8-.4 3.3-1.2 4.6H18.4c-.8-1.3-1.2-2.8-1.2-4.6C17.2 15.7 19.8 11.9 24 9Z"/>
    <path d="M13 40V26.4c0-1.4 1-2.1 2.2-2.1h17.6c1.2 0 2.2.7 2.2 2.1V40"/>
    <path d="M9 40h30"/>
    <path d="M20.5 40v-6a3.5 3.5 0 0 1 7 0v6"/>
  </g>
</svg>
